<?xml version="1.0" encoding="UTF-8" standalone="no"?>
<!DOCTYPE svg PUBLIC "-//W3C//DTD SVG 1.1//EN"
 "http://www.w3.org/Graphics/SVG/1.1/DTD/svg11.dtd">
<!-- Generated by graphviz version 2.43.0 (0)
 -->
<!-- Title: mygraph Pages: 1 -->
<svg width="759pt" height="98pt"
 viewBox="0.00 0.00 759.00 98.00" xmlns="http://www.w3.org/2000/svg" xmlns:xlink="http://www.w3.org/1999/xlink">
<g id="graph0" class="graph" transform="scale(1 1) rotate(0) translate(4 94)">
<title>mygraph</title>
<polygon fill="white" stroke="transparent" points="-4,4 -4,-94 755,-94 755,4 -4,4"/>
<!-- //without_toolchains:hello&#45;jaden&#45;and&#45;world (5c86453) -->
<g id="node1" class="node">
<title>//without_toolchains:hello&#45;jaden&#45;and&#45;world (5c86453)</title>
<polygon fill="none" stroke="black" points="395,-36 0,-36 0,0 395,0 395,-36"/>
<text text-anchor="middle" x="197.5" y="-14.3" font-family="Times,serif" font-size="14.00">//without_toolchains:hello&#45;jaden&#45;and&#45;world (5c86453)</text>
</g>
<!-- //without_toolchains:hello&#45;world (5c86453) -->
<g id="node2" class="node">
<title>//without_toolchains:hello&#45;world (5c86453)</title>
<polygon fill="none" stroke="black" points="751,-36 431,-36 431,0 751,0 751,-36"/>
<text text-anchor="middle" x="591" y="-14.3" font-family="Times,serif" font-size="14.00">//without_toolchains:hello&#45;world (5c86453)</text>
</g>
<!-- //without_toolchains:hello&#45;jaden&#45;and&#45;world (5c86453)&#45;&gt;//without_toolchains:hello&#45;world (5c86453) -->
<g id="edge1" class="edge">
<title>//without_toolchains:hello&#45;jaden&#45;and&#45;world (5c86453)&#45;&gt;//without_toolchains:hello&#45;world (5c86453)</title>
<path fill="none" stroke="black" d="M395.11,-18C403.74,-18 412.37,-18 420.93,-18"/>
<polygon fill="black" stroke="black" points="420.94,-21.5 430.94,-18 420.94,-14.5 420.94,-21.5"/>
</g>
<!-- //without_toolchains:hello&#45;jaden&#45;and&#45;jaden (5c86453) -->
<g id="node3" class="node">
<title>//without_toolchains:hello&#45;jaden&#45;and&#45;jaden (5c86453)</title>
<polygon fill="none" stroke="black" points="394,-90 1,-90 1,-54 394,-54 394,-90"/>
<text text-anchor="middle" x="197.5" y="-68.3" font-family="Times,serif" font-size="14.00">//without_toolchains:hello&#45;jaden&#45;and&#45;jaden (5c86453)</text>
</g>
<!-- //without_toolchains:hello&#45;jaden (5c86453) -->
<g id="node4" class="node">
<title>//without_toolchains:hello&#45;jaden (5c86453)</title>
<polygon fill="none" stroke="black" points="750.5,-90 431.5,-90 431.5,-54 750.5,-54 750.5,-90"/>
<text text-anchor="middle" x="591" y="-68.3" font-family="Times,serif" font-size="14.00">//without_toolchains:hello&#45;jaden (5c86453)</text>
</g>
<!-- //without_toolchains:hello&#45;jaden&#45;and&#45;jaden (5c86453)&#45;&gt;//without_toolchains:hello&#45;jaden (5c86453) -->
<g id="edge2" class="edge">
<title>//without_toolchains:hello&#45;jaden&#45;and&#45;jaden (5c86453)&#45;&gt;//without_toolchains:hello&#45;jaden (5c86453)</title>
<path fill="none" stroke="black" d="M394.25,-72C403.28,-72 412.31,-72 421.26,-72"/>
<polygon fill="black" stroke="black" points="421.33,-75.5 431.33,-72 421.33,-68.5 421.33,-75.5"/>
</g>
</g>
</svg>
