<?xml version="1.0" encoding="UTF-8" standalone="no"?>
<!DOCTYPE svg PUBLIC "-//W3C//DTD SVG 1.1//EN"
 "http://www.w3.org/Graphics/SVG/1.1/DTD/svg11.dtd">
<!-- Generated by graphviz version 2.43.0 (0)
 -->
<!-- Title: mygraph Pages: 1 -->
<svg width="787pt" height="206pt"
 viewBox="0.00 0.00 787.00 206.00" xmlns="http://www.w3.org/2000/svg" xmlns:xlink="http://www.w3.org/1999/xlink">
<g id="graph0" class="graph" transform="scale(1 1) rotate(0) translate(4 202)">
<title>mygraph</title>
<polygon fill="white" stroke="transparent" points="-4,4 -4,-202 783,-202 783,4 -4,4"/>
<!-- //with_toolchains:hello&#45;jaden&#45;and&#45;world (ce74172) -->
<g id="node1" class="node">
<title>//with_toolchains:hello&#45;jaden&#45;and&#45;world (ce74172)</title>
<polygon fill="none" stroke="black" points="403.5,-36 32.5,-36 32.5,0 403.5,0 403.5,-36"/>
<text text-anchor="middle" x="218" y="-14.3" font-family="Times,serif" font-size="14.00">//with_toolchains:hello&#45;jaden&#45;and&#45;world (ce74172)</text>
</g>
<!-- //with_toolchains:hello&#45;world (5c86453) -->
<g id="node2" class="node">
<title>//with_toolchains:hello&#45;world (5c86453)</title>
<polygon fill="none" stroke="black" points="774,-36 477,-36 477,0 774,0 774,-36"/>
<text text-anchor="middle" x="625.5" y="-14.3" font-family="Times,serif" font-size="14.00">//with_toolchains:hello&#45;world (5c86453)</text>
</g>
<!-- //with_toolchains:hello&#45;jaden&#45;and&#45;world (ce74172)&#45;&gt;//with_toolchains:hello&#45;world (5c86453) -->
<g id="edge1" class="edge">
<title>//with_toolchains:hello&#45;jaden&#45;and&#45;world (ce74172)&#45;&gt;//with_toolchains:hello&#45;world (5c86453)</title>
<path fill="none" stroke="black" d="M403.65,-18C424.76,-18 446.14,-18 466.85,-18"/>
<polygon fill="black" stroke="black" points="466.96,-21.5 476.96,-18 466.96,-14.5 466.96,-21.5"/>
</g>
<!-- //with_toolchains:hello&#45;jaden&#45;and&#45;default&#45;correct (ce74172) -->
<g id="node3" class="node">
<title>//with_toolchains:hello&#45;jaden&#45;and&#45;default&#45;correct (ce74172)</title>
<polygon fill="none" stroke="black" points="436,-90 0,-90 0,-54 436,-54 436,-90"/>
<text text-anchor="middle" x="218" y="-68.3" font-family="Times,serif" font-size="14.00">//with_toolchains:hello&#45;jaden&#45;and&#45;default&#45;correct (ce74172)</text>
</g>
<!-- //with_toolchains:hello&#45;default (5c86453) -->
<g id="node4" class="node">
<title>//with_toolchains:hello&#45;default (5c86453)</title>
<polygon fill="none" stroke="black" points="779,-90 472,-90 472,-54 779,-54 779,-90"/>
<text text-anchor="middle" x="625.5" y="-68.3" font-family="Times,serif" font-size="14.00">//with_toolchains:hello&#45;default (5c86453)</text>
</g>
<!-- //with_toolchains:hello&#45;jaden&#45;and&#45;default&#45;correct (ce74172)&#45;&gt;//with_toolchains:hello&#45;default (5c86453) -->
<g id="edge2" class="edge">
<title>//with_toolchains:hello&#45;jaden&#45;and&#45;default&#45;correct (ce74172)&#45;&gt;//with_toolchains:hello&#45;default (5c86453)</title>
<path fill="none" stroke="black" d="M436.29,-72C444.78,-72 453.24,-72 461.6,-72"/>
<polygon fill="black" stroke="black" points="461.75,-75.5 471.75,-72 461.75,-68.5 461.75,-75.5"/>
</g>
<!-- //with_toolchains:hello&#45;jaden&#45;and&#45;default (ce74172) -->
<g id="node5" class="node">
<title>//with_toolchains:hello&#45;jaden&#45;and&#45;default (ce74172)</title>
<polygon fill="none" stroke="black" points="408,-144 28,-144 28,-108 408,-108 408,-144"/>
<text text-anchor="middle" x="218" y="-122.3" font-family="Times,serif" font-size="14.00">//with_toolchains:hello&#45;jaden&#45;and&#45;default (ce74172)</text>
</g>
<!-- //with_toolchains:hello&#45;default (ce74172) -->
<g id="node6" class="node">
<title>//with_toolchains:hello&#45;default (ce74172)</title>
<polygon fill="none" stroke="black" points="778.5,-144 472.5,-144 472.5,-108 778.5,-108 778.5,-144"/>
<text text-anchor="middle" x="625.5" y="-122.3" font-family="Times,serif" font-size="14.00">//with_toolchains:hello&#45;default (ce74172)</text>
</g>
<!-- //with_toolchains:hello&#45;jaden&#45;and&#45;default (ce74172)&#45;&gt;//with_toolchains:hello&#45;default (ce74172) -->
<g id="edge3" class="edge">
<title>//with_toolchains:hello&#45;jaden&#45;and&#45;default (ce74172)&#45;&gt;//with_toolchains:hello&#45;default (ce74172)</title>
<path fill="none" stroke="black" d="M408.1,-126C426.13,-126 444.32,-126 462.07,-126"/>
<polygon fill="black" stroke="black" points="462.47,-129.5 472.47,-126 462.47,-122.5 462.47,-129.5"/>
</g>
<!-- //with_toolchains:hello&#45;default&#45;and&#45;jaden (5c86453) -->
<g id="node7" class="node">
<title>//with_toolchains:hello&#45;default&#45;and&#45;jaden (5c86453)</title>
<polygon fill="none" stroke="black" points="408.5,-198 27.5,-198 27.5,-162 408.5,-162 408.5,-198"/>
<text text-anchor="middle" x="218" y="-176.3" font-family="Times,serif" font-size="14.00">//with_toolchains:hello&#45;default&#45;and&#45;jaden (5c86453)</text>
</g>
<!-- //with_toolchains:hello&#45;jaden (ce74172) -->
<g id="node8" class="node">
<title>//with_toolchains:hello&#45;jaden (ce74172)</title>
<polygon fill="none" stroke="black" points="773,-198 478,-198 478,-162 773,-162 773,-198"/>
<text text-anchor="middle" x="625.5" y="-176.3" font-family="Times,serif" font-size="14.00">//with_toolchains:hello&#45;jaden (ce74172)</text>
</g>
<!-- //with_toolchains:hello&#45;default&#45;and&#45;jaden (5c86453)&#45;&gt;//with_toolchains:hello&#45;jaden (ce74172) -->
<g id="edge4" class="edge">
<title>//with_toolchains:hello&#45;default&#45;and&#45;jaden (5c86453)&#45;&gt;//with_toolchains:hello&#45;jaden (ce74172)</title>
<path fill="none" stroke="black" d="M408.69,-180C428.44,-180 448.35,-180 467.68,-180"/>
<polygon fill="black" stroke="black" points="467.72,-183.5 477.72,-180 467.72,-176.5 467.72,-183.5"/>
</g>
</g>
</svg>
