<?xml version="1.0" encoding="UTF-8" standalone="no"?>
<!DOCTYPE svg PUBLIC "-//W3C//DTD SVG 1.1//EN"
 "http://www.w3.org/Graphics/SVG/1.1/DTD/svg11.dtd">
<!-- Generated by graphviz version 2.43.0 (0)
 -->
<!-- Title: mygraph Pages: 1 -->
<svg width="516pt" height="98pt"
 viewBox="0.00 0.00 516.00 98.00" xmlns="http://www.w3.org/2000/svg" xmlns:xlink="http://www.w3.org/1999/xlink">
<g id="graph0" class="graph" transform="scale(1 1) rotate(0) translate(4 94)">
<title>mygraph</title>
<polygon fill="white" stroke="transparent" points="-4,4 -4,-94 512,-94 512,4 -4,4"/>
<!-- //with_incoming:copied&#45;file -->
<g id="node1" class="node">
<title>//with_incoming:copied&#45;file</title>
<polygon fill="none" stroke="black" points="261.5,-90 55.5,-90 55.5,-54 261.5,-54 261.5,-90"/>
<text text-anchor="middle" x="158.5" y="-68.3" font-family="Times,serif" font-size="14.00">//with_incoming:copied&#45;file</text>
</g>
<!-- //with_incoming:file -->
<g id="node2" class="node">
<title>//with_incoming:file</title>
<polygon fill="none" stroke="black" points="508,-63 353,-63 353,-27 508,-27 508,-63"/>
<text text-anchor="middle" x="430.5" y="-41.3" font-family="Times,serif" font-size="14.00">//with_incoming:file</text>
</g>
<!-- //with_incoming:copied&#45;file&#45;&gt;//with_incoming:file -->
<g id="edge1" class="edge">
<title>//with_incoming:copied&#45;file&#45;&gt;//with_incoming:file</title>
<path fill="none" stroke="black" d="M261.58,-61.79C288.34,-59.12 316.94,-56.26 342.81,-53.67"/>
<polygon fill="black" stroke="black" points="343.36,-57.13 352.96,-52.65 342.66,-50.17 343.36,-57.13"/>
</g>
<!-- //with_incoming:copied&#45;file&#45;with&#45;transition -->
<g id="node3" class="node">
<title>//with_incoming:copied&#45;file&#45;with&#45;transition</title>
<polygon fill="none" stroke="black" points="317,-36 0,-36 0,0 317,0 317,-36"/>
<text text-anchor="middle" x="158.5" y="-14.3" font-family="Times,serif" font-size="14.00">//with_incoming:copied&#45;file&#45;with&#45;transition</text>
</g>
<!-- //with_incoming:copied&#45;file&#45;with&#45;transition&#45;&gt;//with_incoming:file -->
<g id="edge2" class="edge">
<title>//with_incoming:copied&#45;file&#45;with&#45;transition&#45;&gt;//with_incoming:file</title>
<path fill="none" stroke="black" d="M317.34,-33.78C326.04,-34.65 334.6,-35.51 342.89,-36.34"/>
<polygon fill="black" stroke="black" points="342.55,-39.82 352.85,-37.33 343.25,-32.86 342.55,-39.82"/>
</g>
</g>
</svg>
