<?xml version="1.0" encoding="UTF-8" standalone="no"?>
<!DOCTYPE svg PUBLIC "-//W3C//DTD SVG 1.1//EN"
 "http://www.w3.org/Graphics/SVG/1.1/DTD/svg11.dtd">
<!-- Generated by graphviz version 2.43.0 (0)
 -->
<!-- Title: mygraph Pages: 1 -->
<svg width="871pt" height="98pt"
 viewBox="0.00 0.00 871.00 98.00" xmlns="http://www.w3.org/2000/svg" xmlns:xlink="http://www.w3.org/1999/xlink">
<g id="graph0" class="graph" transform="scale(1 1) rotate(0) translate(4 94)">
<title>mygraph</title>
<polygon fill="white" stroke="transparent" points="-4,4 -4,-94 867,-94 867,4 -4,4"/>
<!-- //with_incoming_and_outgoing:copied&#45;file&#45;with&#45;transition (dd5e6f6) -->
<g id="node1" class="node">
<title>//with_incoming_and_outgoing:copied&#45;file&#45;with&#45;transition (dd5e6f6)</title>
<polygon fill="none" stroke="black" points="493,-90 0,-90 0,-54 493,-54 493,-90"/>
<text text-anchor="middle" x="246.5" y="-68.3" font-family="Times,serif" font-size="14.00">//with_incoming_and_outgoing:copied&#45;file&#45;with&#45;transition (dd5e6f6)</text>
</g>
<!-- //with_incoming_and_outgoing:file (c1d7d5e) -->
<g id="node2" class="node">
<title>//with_incoming_and_outgoing:file (c1d7d5e)</title>
<polygon fill="none" stroke="black" points="863,-63 529,-63 529,-27 863,-27 863,-63"/>
<text text-anchor="middle" x="696" y="-41.3" font-family="Times,serif" font-size="14.00">//with_incoming_and_outgoing:file (c1d7d5e)</text>
</g>
<!-- //with_incoming_and_outgoing:copied&#45;file&#45;with&#45;transition (dd5e6f6)&#45;&gt;//with_incoming_and_outgoing:file (c1d7d5e) -->
<g id="edge1" class="edge">
<title>//with_incoming_and_outgoing:copied&#45;file&#45;with&#45;transition (dd5e6f6)&#45;&gt;//with_incoming_and_outgoing:file (c1d7d5e)</title>
<path fill="none" stroke="black" d="M493.18,-57.18C501.71,-56.66 510.19,-56.15 518.59,-55.64"/>
<polygon fill="black" stroke="black" points="519,-59.13 528.77,-55.03 518.58,-52.14 519,-59.13"/>
</g>
<!-- //with_incoming_and_outgoing:copied&#45;file (c1d7d5e) -->
<g id="node3" class="node">
<title>//with_incoming_and_outgoing:copied&#45;file (c1d7d5e)</title>
<polygon fill="none" stroke="black" points="439,-36 54,-36 54,0 439,0 439,-36"/>
<text text-anchor="middle" x="246.5" y="-14.3" font-family="Times,serif" font-size="14.00">//with_incoming_and_outgoing:copied&#45;file (c1d7d5e)</text>
</g>
<!-- //with_incoming_and_outgoing:copied&#45;file (c1d7d5e)&#45;&gt;//with_incoming_and_outgoing:file (c1d7d5e) -->
<g id="edge2" class="edge">
<title>//with_incoming_and_outgoing:copied&#45;file (c1d7d5e)&#45;&gt;//with_incoming_and_outgoing:file (c1d7d5e)</title>
<path fill="none" stroke="black" d="M439.23,-29.57C465.51,-31.15 492.4,-32.78 518.39,-34.34"/>
<polygon fill="black" stroke="black" points="518.5,-37.86 528.69,-34.97 518.92,-30.87 518.5,-37.86"/>
</g>
</g>
</svg>
