<?xml version="1.0" encoding="UTF-8" standalone="no"?>
<!DOCTYPE svg PUBLIC "-//W3C//DTD SVG 1.1//EN"
 "http://www.w3.org/Graphics/SVG/1.1/DTD/svg11.dtd">
<!-- Generated by graphviz version 2.43.0 (0)
 -->
<!-- Title: mygraph Pages: 1 -->
<svg width="664pt" height="98pt"
 viewBox="0.00 0.00 664.00 98.00" xmlns="http://www.w3.org/2000/svg" xmlns:xlink="http://www.w3.org/1999/xlink">
<g id="graph0" class="graph" transform="scale(1 1) rotate(0) translate(4 94)">
<title>mygraph</title>
<polygon fill="white" stroke="transparent" points="-4,4 -4,-94 660,-94 660,4 -4,4"/>
<!-- //with_incoming:copied&#45;file&#45;with&#45;transition (5f2cb63) -->
<g id="node1" class="node">
<title>//with_incoming:copied&#45;file&#45;with&#45;transition (5f2cb63)</title>
<polygon fill="none" stroke="black" points="389,-36 0,-36 0,0 389,0 389,-36"/>
<text text-anchor="middle" x="194.5" y="-14.3" font-family="Times,serif" font-size="14.00">//with_incoming:copied&#45;file&#45;with&#45;transition (5f2cb63)</text>
</g>
<!-- //with_incoming:file (5f2cb63) -->
<g id="node2" class="node">
<title>//with_incoming:file (5f2cb63)</title>
<polygon fill="none" stroke="black" points="654.5,-36 426.5,-36 426.5,0 654.5,0 654.5,-36"/>
<text text-anchor="middle" x="540.5" y="-14.3" font-family="Times,serif" font-size="14.00">//with_incoming:file (5f2cb63)</text>
</g>
<!-- //with_incoming:copied&#45;file&#45;with&#45;transition (5f2cb63)&#45;&gt;//with_incoming:file (5f2cb63) -->
<g id="edge1" class="edge">
<title>//with_incoming:copied&#45;file&#45;with&#45;transition (5f2cb63)&#45;&gt;//with_incoming:file (5f2cb63)</title>
<path fill="none" stroke="black" d="M389.12,-18C398.33,-18 407.46,-18 416.4,-18"/>
<polygon fill="black" stroke="black" points="416.4,-21.5 426.4,-18 416.4,-14.5 416.4,-21.5"/>
</g>
<!-- //with_incoming:copied&#45;file (c1d7d5e) -->
<g id="node3" class="node">
<title>//with_incoming:copied&#45;file (c1d7d5e)</title>
<polygon fill="none" stroke="black" points="335.5,-90 53.5,-90 53.5,-54 335.5,-54 335.5,-90"/>
<text text-anchor="middle" x="194.5" y="-68.3" font-family="Times,serif" font-size="14.00">//with_incoming:copied&#45;file (c1d7d5e)</text>
</g>
<!-- //with_incoming:file (c1d7d5e) -->
<g id="node4" class="node">
<title>//with_incoming:file (c1d7d5e)</title>
<polygon fill="none" stroke="black" points="656,-90 425,-90 425,-54 656,-54 656,-90"/>
<text text-anchor="middle" x="540.5" y="-68.3" font-family="Times,serif" font-size="14.00">//with_incoming:file (c1d7d5e)</text>
</g>
<!-- //with_incoming:copied&#45;file (c1d7d5e)&#45;&gt;//with_incoming:file (c1d7d5e) -->
<g id="edge2" class="edge">
<title>//with_incoming:copied&#45;file (c1d7d5e)&#45;&gt;//with_incoming:file (c1d7d5e)</title>
<path fill="none" stroke="black" d="M335.91,-72C361.99,-72 389.07,-72 414.65,-72"/>
<polygon fill="black" stroke="black" points="414.74,-75.5 424.74,-72 414.74,-68.5 414.74,-75.5"/>
</g>
</g>
</svg>
