<?xml version="1.0" encoding="UTF-8" standalone="no"?>
<!DOCTYPE svg PUBLIC "-//W3C//DTD SVG 1.1//EN"
 "http://www.w3.org/Graphics/SVG/1.1/DTD/svg11.dtd">
<!-- Generated by graphviz version 2.43.0 (0)
 -->
<!-- Title: mygraph Pages: 1 -->
<svg width="641pt" height="98pt"
 viewBox="0.00 0.00 641.00 98.00" xmlns="http://www.w3.org/2000/svg" xmlns:xlink="http://www.w3.org/1999/xlink">
<g id="graph0" class="graph" transform="scale(1 1) rotate(0) translate(4 94)">
<title>mygraph</title>
<polygon fill="white" stroke="transparent" points="-4,4 -4,-94 637,-94 637,4 -4,4"/>
<!-- //without_transitions:copied&#45;file&#45;2 (c1d7d5e) -->
<g id="node1" class="node">
<title>//without_transitions:copied&#45;file&#45;2 (c1d7d5e)</title>
<polygon fill="none" stroke="black" points="331,-90 0,-90 0,-54 331,-54 331,-90"/>
<text text-anchor="middle" x="165.5" y="-68.3" font-family="Times,serif" font-size="14.00">//without_transitions:copied&#45;file&#45;2 (c1d7d5e)</text>
</g>
<!-- //without_transitions:file (c1d7d5e) -->
<g id="node2" class="node">
<title>//without_transitions:file (c1d7d5e)</title>
<polygon fill="none" stroke="black" points="633,-63 367,-63 367,-27 633,-27 633,-63"/>
<text text-anchor="middle" x="500" y="-41.3" font-family="Times,serif" font-size="14.00">//without_transitions:file (c1d7d5e)</text>
</g>
<!-- //without_transitions:copied&#45;file&#45;2 (c1d7d5e)&#45;&gt;//without_transitions:file (c1d7d5e) -->
<g id="edge1" class="edge">
<title>//without_transitions:copied&#45;file&#45;2 (c1d7d5e)&#45;&gt;//without_transitions:file (c1d7d5e)</title>
<path fill="none" stroke="black" d="M331.29,-58.62C339.76,-57.93 348.24,-57.24 356.64,-56.56"/>
<polygon fill="black" stroke="black" points="357.15,-60.03 366.84,-55.73 356.59,-53.05 357.15,-60.03"/>
</g>
<!-- //without_transitions:copied&#45;file&#45;1 (c1d7d5e) -->
<g id="node3" class="node">
<title>//without_transitions:copied&#45;file&#45;1 (c1d7d5e)</title>
<polygon fill="none" stroke="black" points="331,-36 0,-36 0,0 331,0 331,-36"/>
<text text-anchor="middle" x="165.5" y="-14.3" font-family="Times,serif" font-size="14.00">//without_transitions:copied&#45;file&#45;1 (c1d7d5e)</text>
</g>
<!-- //without_transitions:copied&#45;file&#45;1 (c1d7d5e)&#45;&gt;//without_transitions:file (c1d7d5e) -->
<g id="edge2" class="edge">
<title>//without_transitions:copied&#45;file&#45;1 (c1d7d5e)&#45;&gt;//without_transitions:file (c1d7d5e)</title>
<path fill="none" stroke="black" d="M331.29,-31.38C339.76,-32.07 348.24,-32.76 356.64,-33.44"/>
<polygon fill="black" stroke="black" points="356.59,-36.95 366.84,-34.27 357.15,-29.97 356.59,-36.95"/>
</g>
</g>
</svg>
