<?xml version="1.0" encoding="UTF-8" standalone="no"?>
<!DOCTYPE svg PUBLIC "-//W3C//DTD SVG 1.1//EN"
 "http://www.w3.org/Graphics/SVG/1.1/DTD/svg11.dtd">
<!-- Generated by graphviz version 2.43.0 (0)
 -->
<!-- Title: mygraph Pages: 1 -->
<svg width="490pt" height="98pt"
 viewBox="0.00 0.00 490.00 98.00" xmlns="http://www.w3.org/2000/svg" xmlns:xlink="http://www.w3.org/1999/xlink">
<g id="graph0" class="graph" transform="scale(1 1) rotate(0) translate(4 94)">
<title>mygraph</title>
<polygon fill="white" stroke="transparent" points="-4,4 -4,-94 486,-94 486,4 -4,4"/>
<!-- //without_transitions:copied&#45;file&#45;1 -->
<g id="node1" class="node">
<title>//without_transitions:copied&#45;file&#45;1</title>
<polygon fill="none" stroke="black" points="255,-90 0,-90 0,-54 255,-54 255,-90"/>
<text text-anchor="middle" x="127.5" y="-68.3" font-family="Times,serif" font-size="14.00">//without_transitions:copied&#45;file&#45;1</text>
</g>
<!-- //without_transitions:file -->
<g id="node2" class="node">
<title>//without_transitions:file</title>
<polygon fill="none" stroke="black" points="482,-63 291,-63 291,-27 482,-27 482,-63"/>
<text text-anchor="middle" x="386.5" y="-41.3" font-family="Times,serif" font-size="14.00">//without_transitions:file</text>
</g>
<!-- //without_transitions:copied&#45;file&#45;1&#45;&gt;//without_transitions:file -->
<g id="edge1" class="edge">
<title>//without_transitions:copied&#45;file&#45;1&#45;&gt;//without_transitions:file</title>
<path fill="none" stroke="black" d="M255.12,-58.7C263.68,-57.8 272.24,-56.9 280.67,-56.01"/>
<polygon fill="black" stroke="black" points="281.29,-59.47 290.87,-54.94 280.56,-52.51 281.29,-59.47"/>
</g>
<!-- //without_transitions:copied&#45;file&#45;2 -->
<g id="node3" class="node">
<title>//without_transitions:copied&#45;file&#45;2</title>
<polygon fill="none" stroke="black" points="255,-36 0,-36 0,0 255,0 255,-36"/>
<text text-anchor="middle" x="127.5" y="-14.3" font-family="Times,serif" font-size="14.00">//without_transitions:copied&#45;file&#45;2</text>
</g>
<!-- //without_transitions:copied&#45;file&#45;2&#45;&gt;//without_transitions:file -->
<g id="edge2" class="edge">
<title>//without_transitions:copied&#45;file&#45;2&#45;&gt;//without_transitions:file</title>
<path fill="none" stroke="black" d="M255.12,-31.3C263.68,-32.2 272.24,-33.1 280.67,-33.99"/>
<polygon fill="black" stroke="black" points="280.56,-37.49 290.87,-35.06 281.29,-30.53 280.56,-37.49"/>
</g>
</g>
</svg>
